<svg width="250" height="250" viewBox="0 0 250 250" fill="none" xmlns="http://www.w3.org/2000/svg">
<path d="M175 100C175 113.261 169.732 125.979 160.355 135.355C150.979 144.732 138.261 150 125 150C111.739 150 99.0215 144.732 89.6447 135.355C80.2678 125.979 75 113.261 75 100C75 86.7392 80.2678 74.0215 89.6447 64.6447C99.0215 55.2678 111.739 50 125 50C138.261 50 150.979 55.2678 160.355 64.6447C169.732 74.0215 175 86.7392 175 100Z" fill="#699BF7"/>
<path fill-rule="evenodd" clip-rule="evenodd" d="M119.9 249.9C53.2313 247.225 0 192.325 0 125C0 55.9625 55.9625 0 125 0C194.037 0 250 55.9625 250 125C250 194.037 194.037 250 125 250H123.287C122.154 250 121.025 249.967 119.9 249.9ZM44.7875 203.875C43.8529 201.191 43.5348 198.331 43.8568 195.507C44.1787 192.684 45.1325 189.969 46.6474 187.564C48.1622 185.16 50.1991 183.127 52.607 181.617C55.0149 180.108 57.7319 179.16 60.5563 178.844C109.281 173.45 141.019 173.938 189.506 178.956C192.334 179.251 195.058 180.187 197.47 181.693C199.882 183.199 201.918 185.236 203.423 187.648C204.929 190.06 205.864 192.784 206.158 195.612C206.452 198.441 206.096 201.299 205.119 203.969C225.901 182.944 237.539 154.562 237.5 125C237.5 62.8688 187.131 12.5 125 12.5C62.8688 12.5 12.5 62.8688 12.5 125C12.5 155.725 24.8188 183.575 44.7875 203.875Z" fill="#699BF7"/>
</svg>
