<svg width="34" height="31" viewBox="0 0 34 31" fill="none" xmlns="http://www.w3.org/2000/svg">
<path d="M2.5 2.16675H3.51053C5.21157 2.16675 6.63973 3.44758 6.8242 5.13859L8.1758 17.5282C8.36027 19.2192 9.78843 20.5001 11.4895 20.5001H25.91C27.4337 20.5001 28.7635 19.4669 29.14 17.9904L31.4399 8.97193C31.9774 6.86432 30.385 4.8149 28.2099 4.8149H8.5M8.54126 26.5416H9.79126M8.54126 27.7916H9.79126M26.8746 26.5416H28.1246M26.8746 27.7916H28.1246M10.8333 27.1667C10.8333 28.0872 10.0871 28.8334 9.16667 28.8334C8.24619 28.8334 7.5 28.0872 7.5 27.1667C7.5 26.2463 8.24619 25.5001 9.16667 25.5001C10.0871 25.5001 10.8333 26.2463 10.8333 27.1667ZM29.1667 27.1667C29.1667 28.0872 28.4205 28.8334 27.5 28.8334C26.5795 28.8334 25.8333 28.0872 25.8333 27.1667C25.8333 26.2463 26.5795 25.5001 27.5 25.5001C28.4205 25.5001 29.1667 26.2463 29.1667 27.1667Z" stroke="#0066A2" stroke-width="4" stroke-linecap="round"/>
</svg>
