<svg width="51" height="50" viewBox="0 0 51 50" fill="none" xmlns="http://www.w3.org/2000/svg">
<ellipse cx="25.7355" cy="25" rx="24.8068" ry="25" fill="#DEE2E7"/>
<path fill-rule="evenodd" clip-rule="evenodd" d="M34.0045 15.625H17.4666C16.3297 15.625 15.4098 16.5625 15.4098 17.7083L15.3994 36.4583L19.5339 32.2917H34.0045C35.1415 32.2917 36.0718 31.3542 36.0718 30.2083V17.7083C36.0718 16.5625 35.1415 15.625 34.0045 15.625ZM20.5676 22.9167H30.9037C31.4722 22.9167 31.9373 23.3854 31.9373 23.9583C31.9373 24.5312 31.4722 25 30.9037 25H20.5676C19.9991 25 19.5339 24.5312 19.5339 23.9583C19.5339 23.3854 19.9991 22.9167 20.5676 22.9167ZM26.7693 28.125H20.5676C19.9991 28.125 19.5339 27.6562 19.5339 27.0833C19.5339 26.5104 19.9991 26.0417 20.5676 26.0417H26.7693C27.3377 26.0417 27.8029 26.5104 27.8029 27.0833C27.8029 27.6562 27.3377 28.125 26.7693 28.125ZM30.9037 21.875H20.5676C19.9991 21.875 19.5339 21.4062 19.5339 20.8333C19.5339 20.2604 19.9991 19.7917 20.5676 19.7917H30.9037C31.4722 19.7917 31.9373 20.2604 31.9373 20.8333C31.9373 21.4062 31.4722 21.875 30.9037 21.875Z" fill="#8B96A5"/>
</svg>
