<svg width="80" height="80" viewBox="0 0 80 80" fill="none" xmlns="http://www.w3.org/2000/svg">
<circle cx="40" cy="40" r="39.5" fill="white" stroke="#B4B4B4"/>
<path d="M29.3557 41.3705L29.3542 41.3693L29.3557 41.3705ZM29.3557 41.3705L29.3571 41.3717L29.3557 41.3705ZM55.211 55.7685L55.211 55.7684C55.4517 55.6241 55.6508 55.4198 55.7891 55.1756C55.9273 54.9314 56 54.6556 56 54.375C56 49.1319 54.3927 44.275 51.4081 40.7279C49.8092 38.8277 47.8882 37.3794 45.761 36.4505C46.7851 35.6168 47.6229 34.565 48.2076 33.3617C49.1125 31.4991 49.357 29.3841 48.9009 27.3641C48.4448 25.3441 47.3151 23.5394 45.6976 22.2464C44.0801 20.9534 42.0708 20.249 40 20.249C37.9292 20.249 35.9199 20.9534 34.3024 22.2464C32.6849 23.5394 31.5552 25.3441 31.0991 27.3641C30.643 29.3841 30.8875 31.4991 31.7924 33.3617C32.3771 34.565 33.2149 35.6168 34.239 36.4505C32.1118 37.3795 30.1908 38.8279 28.592 40.7279L28.5919 40.7279C25.6073 44.275 24 49.1319 24 54.375C24 54.6669 24.0786 54.9535 24.2277 55.2045L25.0876 54.694C25.1449 54.7906 25.2271 54.8699 25.3257 54.9237L24.8468 55.8015C24.8468 55.8015 24.8468 55.8015 24.8468 55.8015C25.1595 55.9721 32.1625 59.75 40 59.75C48.4744 59.75 54.8951 55.958 55.211 55.7685ZM34.125 29.3747C34.1251 28.2128 34.4696 27.0771 35.1151 26.111C35.7607 25.1449 36.6782 24.3919 37.7517 23.9472C38.8252 23.5025 40.0065 23.3862 41.1462 23.6129C42.2858 23.8396 43.3326 24.3991 44.1543 25.2207L44.8614 24.5136L44.1543 25.2207C44.9759 26.0424 45.5354 27.0892 45.7621 28.2288C45.9888 29.3685 45.8725 30.5497 45.4278 31.6233C44.9831 32.6968 44.2301 33.6143 43.264 34.2599C42.2979 34.9054 41.1622 35.2499 40.0003 35.25C38.4427 35.248 36.9494 34.6284 35.848 33.527C34.7466 32.4255 34.127 30.9323 34.125 29.3747ZM31.0787 42.8203C33.4404 40.0142 36.6069 38.5 40 38.5C43.3931 38.5 46.5597 40.0142 48.9214 42.8204C51.1918 45.5186 52.5482 49.2418 52.7292 53.4126C50.8361 54.3612 45.9075 56.5 40 56.5C34.5343 56.5 29.3098 54.3347 27.2724 53.3782C27.4596 49.2211 28.8145 45.5111 31.0787 42.8203Z" fill="#B4B4B4" stroke="#B4B4B4" stroke-width="2"/>
</svg>
