<svg width="51" height="50" viewBox="0 0 51 50" fill="none" xmlns="http://www.w3.org/2000/svg">
<ellipse cx="25.7896" cy="25" rx="25.2169" ry="25" fill="#DEE2E7"/>
<path fill-rule="evenodd" clip-rule="evenodd" d="M33.6699 20.8332H31.0432V18.7498C31.0432 17.604 30.0975 16.6665 28.9418 16.6665H16.3333C15.1776 16.6665 14.2319 17.604 14.2319 18.7498V28.1248C14.2319 29.2707 15.1776 30.2082 16.3333 30.2082C16.3333 31.9373 17.7413 33.3332 19.4854 33.3332C21.2296 33.3332 22.6376 31.9373 22.6376 30.2082H28.9418C28.9418 31.9373 30.3497 33.3332 32.0939 33.3332C33.838 33.3332 35.246 31.9373 35.246 30.2082H36.2967C36.8746 30.2082 37.3474 29.7394 37.3474 29.1665V25.6978C37.3474 25.2498 37.2003 24.8123 36.9271 24.4478L34.5105 21.2498C34.3109 20.9894 33.9956 20.8332 33.6699 20.8332ZM19.4854 31.2498C18.9075 31.2498 18.4347 30.7811 18.4347 30.2082C18.4347 29.6352 18.9075 29.1665 19.4854 29.1665C20.0633 29.1665 20.5361 29.6352 20.5361 30.2082C20.5361 30.7811 20.0633 31.2498 19.4854 31.2498ZM33.67 22.3957L35.7293 24.9998H31.0432V22.3957H33.67ZM32.0939 31.2498C31.516 31.2498 31.0432 30.7811 31.0432 30.2082C31.0432 29.6352 31.516 29.1665 32.0939 29.1665C32.6718 29.1665 33.1446 29.6352 33.1446 30.2082C33.1446 30.7811 32.6718 31.2498 32.0939 31.2498Z" fill="#8B96A5"/>
</svg>
