<svg width="50" height="50" viewBox="0 0 50 50" fill="none" xmlns="http://www.w3.org/2000/svg">
<circle cx="25" cy="25" r="25" fill="#DEE2E7"/>
<path fill-rule="evenodd" clip-rule="evenodd" d="M31.2501 20.8332H30.2084V18.7498C30.2084 15.8748 27.8751 13.5415 25.0001 13.5415C22.1251 13.5415 19.7917 15.8748 19.7917 18.7498V20.8332H18.7501C17.6042 20.8332 16.6667 21.7707 16.6667 22.9165V33.3332C16.6667 34.479 17.6042 35.4165 18.7501 35.4165H31.2501C32.3959 35.4165 33.3334 34.479 33.3334 33.3332V22.9165C33.3334 21.7707 32.3959 20.8332 31.2501 20.8332ZM25.0001 30.2082C23.8542 30.2082 22.9167 29.2707 22.9167 28.1248C22.9167 26.979 23.8542 26.0415 25.0001 26.0415C26.1459 26.0415 27.0834 26.979 27.0834 28.1248C27.0834 29.2707 26.1459 30.2082 25.0001 30.2082ZM21.875 20.8332V18.7498C21.875 17.0207 23.2708 15.6248 25 15.6248C26.7292 15.6248 28.125 17.0207 28.125 18.7498V20.8332H21.875Z" fill="#8B96A5"/>
</svg>
